# xmcd
#
# Track frame offsets:
# 150
# 16130
# 28303
# 41350
# 55965
# 69515
# 83588
# 100505
# 116445
# 133653
# 153338
#
# Disc length: 2225 seconds
#
#
# Revision: 0
# Processed by: cddbd v1.5.2PL0 Copyright (c) Steve Scherf et al.
# Submitted via: FreeRIP 2.951 
#
DISCID=8008af0b
DTITLE=EDSON E HUDSON - APRENDE A ME AMAR
DYEAR=1995
DGENRE=SERTANEJO
TTITLE0=APRENDE A ME AMAR
TTITLE1=PRA VOCE VOLTAR
TTITLE2=NA HORA DO BANHO
TTITLE3=CHEIRO DE AMOR
TTITLE4=LEVO ELA PRA JANTAR
TTITLE5=FLOR DE PAIXAO
TTITLE6=PELAS CURVAS DO SEU CORPO
TTITLE7=DELICIAS DA VIDA
TTITLE8=PINTA E BORDA
TTITLE9=RIO E NOVA YORK
TTITLE10=PRA NAO SOBRAR MACA
EXTD=
EXTT0=
EXTT1=
EXTT2=
EXTT3=
EXTT4=
EXTT5=
EXTT6=
EXTT7=
EXTT8=
EXTT9=
EXTT10=
PLAYORDER=
